<svg width="64" height="64" viewBox="0 0 64 64" fill="none" xmlns="http://www.w3.org/2000/svg">
<g id="Frame 66">
<circle id="Ellipse 6" cx="32" cy="32" r="32" fill="#5F2585"/>
<g id="Group 14">
<path id="Vector" d="M33.0745 37.1669V35.1034H39.3735V32.9757L39.3641 32.9837H41.4691V30.872H39.3655L39.3722 30.88V28.7764H35.1916V18.2126H45.7125V28.7643H41.5399V30.8613H45.7259V32.957H41.556V35.0766H45.7259V45.6377H35.1902V41.4544H33.0679V39.3307H30.9816V37.1549H33.0906C33.0906 37.8615 33.0906 38.568 33.0906 39.2706H35.1515V37.1669H33.0745ZM41.4718 22.46H39.4323V24.4822H41.4718V22.46ZM39.4189 41.3876H41.4638V39.3547H39.4189V41.3876Z" fill="white"/>
<path id="Vector_2" d="M30.9483 20.2776V22.4013H33.0372V26.6393H30.9509V22.448H28.8566V28.7416H18.3049V18.214H28.8486V20.2776H30.967H30.9483ZM24.5611 24.4969V22.4627H22.5229V24.4902L24.5611 24.4969Z" fill="white"/>
<path id="Vector_3" d="M20.3656 37.1803V35.1034H22.4533V32.9891H18.2927V30.8894H28.8537V32.9824L28.8631 32.9744H24.6451V39.2773H26.7153V35.086H28.8617L28.8537 35.078V39.3134H26.7487V41.4277H24.6571V43.4993H28.8137V41.4384H30.9507V43.518H33.037V45.6391H22.4933V43.5795H20.3897V45.6444H18.2994V43.5381H20.3483V41.4491H18.2874V37.175H20.3736V41.393H22.4493V37.1857L20.3656 37.1803Z" fill="white"/>
<path id="Vector_4" d="M41.5078 49.9946V47.7827H47.8268V41.4384H50.0106V49.9946H41.5078Z" fill="white"/>
<path id="Vector_5" d="M22.4854 47.7615V50H14.0133V41.4398H16.1504V47.7615H22.4854Z" fill="white"/>
<path id="Vector_6" d="M49.9999 22.4039H47.8442V16.0823H41.5092V14H49.9999V22.4039Z" fill="white"/>
<path id="Vector_7" d="M16.1691 16.0569V22.4013H14V14H22.4854V16.0569H16.1691Z" fill="white"/>
<path id="Vector_8" d="M39.3736 32.9756H31.397C31.2635 32.9756 31.1299 32.9943 30.9896 33.0037H30.9963C30.9724 32.9085 30.9563 32.8116 30.9482 32.7138C30.9482 31.4886 30.9482 30.2629 30.9482 29.0368C30.9482 28.9526 30.9603 28.8685 30.9683 28.7697H33.0452V30.876H39.3736L39.3669 30.868C39.3669 31.5714 39.3669 32.2753 39.3669 32.9796L39.3736 32.9756Z" fill="white"/>
<path id="Vector_9" d="M30.9575 20.2775V18.2073H33.0371V20.2775H30.9468H30.9575Z" fill="white"/>
<path id="Vector_10" d="M28.8539 32.9824L30.9909 33.0118C30.9909 33.6903 30.9909 34.3675 30.9909 35.0834H28.8539L28.8619 35.0914V32.9744L28.8539 32.9824Z" fill="white"/>
</g>
</g>
</svg>
