<svg width="182" height="200" viewBox="0 0 182 200" fill="none" xmlns="http://www.w3.org/2000/svg">
<g id="Group 13">
<g id="check_circle">
<mask id="mask0_38_5708" style="mask-type:alpha" maskUnits="userSpaceOnUse" x="17" y="50" width="151" height="150">
<rect id="Bounding box" x="17.3435" y="50" width="150" height="150" fill="#D9D9D9"/>
</mask>
<g mask="url(#mask0_38_5708)">
<path id="check_circle_2" d="M83.0935 153.75L127.156 109.687L118.406 100.937L83.0935 136.25L65.281 118.437L56.531 127.187L83.0935 153.75ZM91.8435 187.5C83.1977 187.5 75.0727 185.859 67.4685 182.578C59.8643 179.296 53.2498 174.843 47.6248 169.218C41.9998 163.593 37.5466 156.979 34.2654 149.375C30.9841 141.77 29.3435 133.645 29.3435 125C29.3435 116.354 30.9841 108.229 34.2654 100.625C37.5466 93.0203 41.9998 86.4058 47.6248 80.7808C53.2498 75.1558 59.8643 70.7026 67.4685 67.4214C75.0727 64.1401 83.1977 62.4995 91.8435 62.4995C100.489 62.4995 108.614 64.1401 116.219 67.4214C123.823 70.7026 130.437 75.1558 136.062 80.7808C141.687 86.4058 146.14 93.0203 149.422 100.625C152.703 108.229 154.344 116.354 154.344 125C154.344 133.645 152.703 141.77 149.422 149.375C146.14 156.979 141.687 163.593 136.062 169.218C130.437 174.843 123.823 179.296 116.219 182.578C108.614 185.859 100.489 187.5 91.8435 187.5Z" fill="#5F2585"/>
</g>
</g>
<path id="Vector" d="M3.40572 54.1672L3.43147 50.0776C5.94568 50.3725 8.43881 50.534 10.8804 50.9718C16.0439 51.9081 20.986 53.8043 25.4506 56.562C26.1895 56.9678 27.0125 57.1962 27.8548 57.2292C34.7934 57.6927 40.4914 60.6611 45.1803 65.7012C45.6836 66.242 46.1472 66.8272 46.606 67.4124C46.8307 67.698 47.0016 68.0281 47.2849 68.4799C46.2361 69.2056 45.2108 69.9173 44.0824 70.6992C41.0555 66.6376 37.3451 63.6013 32.2301 62.0586C32.6257 62.7539 32.9324 63.2291 33.1641 63.7137C34.4704 66.4011 34.0584 68.9903 31.7689 70.8584C28.9527 73.1595 25.6964 74.0561 22.1592 72.8412C16.9295 71.048 15.4313 64.8397 19.1745 60.7594C19.7832 60.0946 20.448 59.4859 21.0847 58.8492C18.0555 56.6627 12.2171 55.1177 3.40572 54.1672ZM27.9321 63.2994C27.4756 62.9318 26.799 62.3208 26.0452 61.8199C25.7062 61.6222 25.3064 61.5556 24.9216 61.6326C22.5525 62.1663 20.7289 64.7391 21.2486 66.7429C21.7683 68.7468 24.2404 69.8002 26.778 69.0558C30.3011 68.0328 30.767 66.1764 27.9321 63.2994Z" fill="#5F2585"/>
<path id="Vector_2" d="M96.2387 48.8398C94.9675 50.0641 93.5559 49.7902 92.746 48.3669C91.8962 46.8757 91.1283 45.3026 90.2411 43.8488C89.8432 43.2013 89.3048 42.6517 88.6656 42.2406C87.2025 41.3252 85.6575 40.5668 84.1452 39.71C82.2607 38.6402 82.1671 36.6597 84.1546 35.838C88.2536 34.1408 91.023 31.3433 92.7319 27.2607C93.5559 25.2756 95.5153 25.3622 96.6203 27.2396C96.9144 27.6856 97.166 28.1582 97.3717 28.6512C98.5445 31.9356 100.958 33.909 104.067 35.2387C105.162 35.7069 106.487 36.147 106.527 37.6991C106.572 39.3307 105.207 39.8341 104.067 40.2765C100.637 41.6132 98.4181 44.0525 97.058 47.3977C96.8227 47.8989 96.5488 48.3811 96.2387 48.8398Z" fill="#5F2585"/>
<path id="Vector_3" d="M166.629 42.6043L169.972 44.758C169.606 45.2168 169.293 45.6663 168.93 46.0572C167.123 47.9955 165.21 49.8285 163.546 51.8535C162.67 52.9163 162.209 54.3185 161.546 55.5896C163.632 55.4047 165.428 55.0793 167.209 55.1285C169.543 55.1917 171.519 56.1608 172.781 58.2654C174.759 61.5591 173.455 65.0823 169.824 66.3066C165.969 67.6012 161.247 65.9882 158.985 62.6079L158.524 61.9266C155.81 63.854 153.725 66.5409 152.534 69.6495L148.809 68.3362C149.788 65.4584 151.455 62.8629 153.664 60.7749C154.753 59.7238 156.38 59.0941 157.155 57.8838C157.883 56.7391 157.726 55.0512 158.119 53.642C159.006 50.5776 161.031 48.2296 163.209 46.0057C164.325 44.8844 165.446 43.7865 166.629 42.6043ZM162.207 59.7191C162.869 62.1467 166.338 63.1721 168.237 62.5611C168.78 62.3831 169.557 61.8494 169.585 61.4374C169.625 60.8685 169.183 60.0984 168.705 59.7144C168.143 59.3012 167.457 59.0908 166.76 59.1175C165.269 59.2041 163.791 59.4967 162.207 59.7191Z" fill="#5F2585"/>
<path id="Vector_4" d="M67.1367 41.429C65.8492 42.0704 65.6338 43.2315 66.0997 44.6619C66.2476 45.1822 66.341 45.7164 66.3783 46.2561C66.5726 48.1031 65.1422 49.1636 63.4567 48.4098C62.6685 48.0527 61.9017 47.6502 61.1602 47.2042C60.8984 47.0073 60.5803 46.8998 60.2527 46.8977C59.9251 46.8956 59.6056 46.999 59.3413 47.1925C58.6071 47.6505 57.8421 48.0572 57.0518 48.4098C55.3991 49.1776 53.634 48.0259 54.1397 46.3076C54.9403 43.5967 54.1958 41.7427 52.0749 40.0291C50.7897 39.0014 51.4663 36.8454 53.1073 36.7775C55.9024 36.6651 57.5715 35.5438 58.5103 32.8493C59.0627 31.2622 61.3943 31.309 61.9866 32.9266C62.9253 35.4806 64.4961 36.6534 67.2257 36.7611C69.0236 36.836 69.5924 38.772 68.4102 40.1649C68.0474 40.5699 67.6424 40.9234 67.1367 41.429ZM60.1841 38.7743C59.5309 39.2402 58.7888 39.7669 58.1451 40.2281L58.9902 42.7072L58.8731 42.1219L61.6401 42.0049L61.4529 42.6603L62.2722 40.2351L60.1841 38.7743Z" fill="#5F2585"/>
<path id="Vector_5" d="M79.1367 12.429C77.8492 13.0704 77.6338 14.2315 78.0997 15.6619C78.2476 16.1822 78.341 16.7164 78.3783 17.2561C78.5726 19.1031 77.1422 20.1636 75.4567 19.4098C74.6685 19.0527 73.9017 18.6502 73.1602 18.2042C72.8984 18.0073 72.5803 17.8998 72.2527 17.8977C71.9251 17.8956 71.6056 17.999 71.3413 18.1925C70.6071 18.6505 69.8421 19.0572 69.0518 19.4098C67.3991 20.1776 65.634 19.0259 66.1397 17.3076C66.9403 14.5967 66.1958 12.7427 64.0749 11.0291C62.7897 10.0014 63.4663 7.84538 65.1073 7.77749C67.9024 7.66512 69.5715 6.5438 70.5103 3.84935C71.0627 2.26217 73.3943 2.30898 73.9866 3.92659C74.9253 6.48059 76.4961 7.65342 79.2257 7.7611C81.0236 7.83602 81.5924 9.772 80.4102 11.1649C80.0474 11.5699 79.6424 11.9234 79.1367 12.429ZM72.1841 9.77434C71.5309 10.2402 70.7888 10.7669 70.1451 11.2281L70.9902 13.7072L70.8731 13.1219L73.6401 13.0049L73.4529 13.6603L74.2722 11.2351L72.1841 9.77434Z" fill="#5F2585"/>
<path id="Vector_6" d="M122.137 12.429C120.849 13.0704 120.634 14.2315 121.1 15.6619C121.248 16.1822 121.341 16.7164 121.378 17.2561C121.573 19.1031 120.142 20.1636 118.457 19.4098C117.669 19.0527 116.902 18.6502 116.16 18.2042C115.898 18.0073 115.58 17.8998 115.253 17.8977C114.925 17.8956 114.606 17.999 114.341 18.1925C113.607 18.6505 112.842 19.0572 112.052 19.4098C110.399 20.1776 108.634 19.0259 109.14 17.3076C109.94 14.5967 109.196 12.7427 107.075 11.0291C105.79 10.0014 106.466 7.84538 108.107 7.77749C110.902 7.66512 112.572 6.5438 113.51 3.84935C114.063 2.26217 116.394 2.30898 116.987 3.92659C117.925 6.48059 119.496 7.65342 122.226 7.7611C124.024 7.83602 124.592 9.772 123.41 11.1649C123.047 11.5699 122.642 11.9234 122.137 12.429ZM115.184 9.77434C114.531 10.2402 113.789 10.7669 113.145 11.2281L113.99 13.7072L113.873 13.1219L116.64 13.0049L116.453 13.6603L117.272 11.2351L115.184 9.77434Z" fill="#5F2585"/>
<path id="Vector_7" d="M13.0575 95.6412C12.2241 94.8078 11.6565 93.746 11.4266 92.5901C11.1967 91.4341 11.3147 90.2359 11.7657 89.147C12.2167 88.0581 12.9805 87.1275 13.9605 86.4727C14.9405 85.8179 16.0926 85.4684 17.2712 85.4684C18.4498 85.4684 19.602 85.8179 20.582 86.4727C21.5619 87.1275 22.3257 88.0581 22.7768 89.147C23.2278 90.2359 23.3458 91.4341 23.1159 92.5901C22.8859 93.746 22.3184 94.8078 21.485 95.6412C20.9355 96.2014 20.2798 96.6464 19.5563 96.9501C18.8327 97.2539 18.0559 97.4103 17.2712 97.4103C16.4865 97.4103 15.7097 97.2539 14.9862 96.9501C14.2627 96.6464 13.607 96.2014 13.0575 95.6412Z" fill="#5F2585"/>
<path id="Vector_8" d="M162.925 95.4858C160.638 93.1332 160.757 89.4134 163.189 87.0607C165.537 84.7876 169.26 84.9234 171.612 87.365C173.845 89.6873 173.726 93.379 171.35 95.7036C168.974 98.0281 165.292 97.9181 162.925 95.4858Z" fill="#5F2585"/>
<path id="Vector_9" d="M137.025 48.7143C136.162 44.1049 137.634 41.7241 141.036 42.1759C140.989 42.5645 140.961 42.9625 140.883 43.3487C140.595 44.765 140.488 46.1275 140.911 47.5906C141.513 49.6717 140.563 51.4555 138.538 52.3053C137.622 52.6612 136.66 52.885 135.682 52.9701C134.837 53.0614 133.938 52.8788 134.258 54.2436C134.291 54.3934 133.978 54.7212 133.76 54.8125C132.777 55.2339 131.777 55.5873 130.791 55.9642C130.333 55.0604 130.149 54.042 130.262 53.0348C130.376 52.0276 130.782 51.0757 131.431 50.2967C132.94 48.5855 135.148 49.3182 137.025 48.7143Z" fill="#5F2585"/>
<path id="Vector_10" d="M124.499 43.7861L120.512 43.5215L120.653 38.0437L124.647 37.95C124.583 39.9516 124.548 41.7892 124.499 43.7861Z" fill="#5F2585"/>
</g>
</svg>
