<svg width="151" height="150" viewBox="0 0 151 150" fill="none" xmlns="http://www.w3.org/2000/svg">
<g id="check_circle">
<mask id="mask0_38_5521" style="mask-type:alpha" maskUnits="userSpaceOnUse" x="0" y="0" width="151" height="150">
<rect id="Bounding box" x="0.5" width="150" height="150" fill="#D9D9D9"/>
</mask>
<g mask="url(#mask0_38_5521)">
<path id="check_circle_2" d="M66.25 103.75L110.313 59.687L101.563 50.937L66.25 86.2495L48.4375 68.437L39.6875 77.187L66.25 103.75ZM75 137.5C66.3542 137.5 58.2292 135.859 50.625 132.578C43.0208 129.296 36.4063 124.843 30.7813 119.218C25.1563 113.593 20.7031 106.979 17.4219 99.3745C14.1406 91.7704 12.5 83.6454 12.5 74.9995C12.5 66.3537 14.1406 58.2287 17.4219 50.6245C20.7031 43.0203 25.1563 36.4058 30.7813 30.7808C36.4063 25.1558 43.0208 20.7026 50.625 17.4214C58.2292 14.1401 66.3542 12.4995 75 12.4995C83.6458 12.4995 91.7709 14.1401 99.375 17.4214C106.979 20.7026 113.594 25.1558 119.219 30.7808C124.844 36.4058 129.297 43.0203 132.578 50.6245C135.859 58.2287 137.5 66.3537 137.5 74.9995C137.5 83.6454 135.859 91.7704 132.578 99.3745C129.297 106.979 124.844 113.593 119.219 119.218C113.594 124.843 106.979 129.296 99.375 132.578C91.7709 135.859 83.6458 137.5 75 137.5Z" fill="#5F2585"/>
</g>
</g>
</svg>
