<svg width="24" height="24" viewBox="0 0 24 24" fill="none" xmlns="http://www.w3.org/2000/svg">
<g id="WhatsApp svg" clip-path="url(#clip0_38_4303)">
<g id="Icon_Shape">
<path id="Vector" d="M24 17.9096C24 18.0411 23.9959 18.3247 23.9877 18.5466C23.9671 19.0849 23.926 19.7795 23.8603 20.0959C23.7616 20.5726 23.6178 21.0205 23.4247 21.3945C23.1986 21.8384 22.911 22.2329 22.5658 22.574C22.2247 22.9151 21.8301 23.2027 21.3863 23.4288C21.0123 23.6219 20.5603 23.7658 20.0795 23.8644C19.7671 23.926 19.0767 23.9712 18.5425 23.9877C18.3205 23.9959 18.037 24 17.9055 24H6.0863C5.95479 24 5.67123 23.9959 5.44932 23.9877C4.91096 23.9671 4.21644 23.926 3.9 23.8603C3.42329 23.7616 2.97534 23.6178 2.60137 23.4247C2.15753 23.1986 1.76301 22.911 1.42192 22.5658C1.08082 22.2247 0.793151 21.8301 0.567123 21.3863C0.373973 21.0123 0.230137 20.5603 0.131507 20.0795C0.069863 19.7671 0.0246575 19.0767 0.00821918 18.5425C0.00410959 18.3247 0 18.0411 0 17.9096V6.09041C0 5.9589 0.00410959 5.67534 0.0123288 5.45342C0.0328767 4.91507 0.0739726 4.22055 0.139726 3.90411C0.238356 3.4274 0.382192 2.97945 0.575342 2.60548C0.80137 2.16164 1.08904 1.76712 1.43014 1.42603C1.77123 1.08493 2.16575 0.79726 2.60959 0.571233C2.98356 0.378082 3.43562 0.234247 3.91644 0.135616C4.22877 0.0739726 4.91918 0.0287671 5.45342 0.0123288C5.67534 0.00410959 5.9589 0 6.09041 0H17.9096C18.0411 0 18.3247 0.00410959 18.5466 0.0123288C19.0849 0.0328767 19.7795 0.0739726 20.0959 0.139726C20.5726 0.238356 21.0205 0.382192 21.3945 0.575342C21.8384 0.80137 22.2329 1.08904 22.574 1.43425C22.9151 1.77534 23.2027 2.16986 23.4288 2.6137C23.6219 2.98767 23.7658 3.43973 23.8644 3.92055C23.926 4.23288 23.9712 4.92329 23.9877 5.45753C23.9959 5.67945 24 5.96301 24 6.09452V17.9096Z" fill="#5F2585"/>
</g>
<g id="WA_Logo">
<g id="Group">
<path id="Vector_2" fill-rule="evenodd" clip-rule="evenodd" d="M18.3124 5.74525C16.6973 4.13018 14.548 3.2384 12.259 3.2384C7.54115 3.2384 3.70691 7.07676 3.7028 11.7905C3.7028 13.2987 4.09732 14.7699 4.84526 16.0644L3.63293 20.4987L8.16992 19.311C9.41924 19.9932 10.8247 20.3507 12.259 20.3507H12.2631C16.9768 20.3507 20.8151 16.5124 20.8192 11.7987C20.8192 9.50964 19.9275 7.36032 18.3124 5.74525ZM12.2631 18.9042C10.985 18.9042 9.73156 18.5589 8.64252 17.9137L8.38362 17.7617L5.69184 18.4685L6.41102 15.8466L6.24252 15.5795C5.53156 14.4494 5.15348 13.1384 5.15348 11.7946C5.15348 7.87402 8.34663 4.68498 12.2672 4.68498C14.1658 4.68498 15.9535 5.4247 17.2932 6.76854C18.637 8.11238 19.3768 9.90005 19.3727 11.7987C19.3686 15.7151 16.1795 18.9042 12.2631 18.9042ZM16.1631 13.5822C15.9494 13.4754 14.8973 12.9576 14.7042 12.8877C14.5069 12.8179 14.3672 12.7809 14.2233 12.9946C14.0795 13.2083 13.6727 13.6891 13.5453 13.8329C13.422 13.9768 13.2946 13.9932 13.0809 13.8863C12.8672 13.7795 12.1768 13.5535 11.3631 12.8261C10.7261 12.259 10.2987 11.5603 10.1754 11.3466C10.0521 11.1329 10.1631 11.0179 10.2699 10.911C10.3644 10.8165 10.4836 10.6603 10.5905 10.537C10.6973 10.4137 10.7343 10.3233 10.8042 10.1795C10.874 10.0357 10.8412 9.91238 10.7877 9.80553C10.7343 9.69868 10.3069 8.64662 10.1302 8.21922C9.95759 7.80416 9.78088 7.85758 9.64937 7.85347C9.52608 7.84525 9.38225 7.84525 9.23841 7.84525C9.09458 7.84525 8.86444 7.89868 8.66718 8.11238C8.46992 8.32607 7.91924 8.84388 7.91924 9.89594C7.91924 10.948 8.68362 11.9631 8.79047 12.1069C8.89732 12.2507 10.2987 14.4083 12.4439 15.3329C12.9535 15.5548 13.3521 15.6863 13.6644 15.785C14.1781 15.9494 14.6425 15.9247 15.0124 15.8713C15.4233 15.8096 16.2781 15.3535 16.4549 14.8562C16.6316 14.359 16.6316 13.9274 16.5781 13.8411C16.5165 13.7425 16.3768 13.6891 16.1631 13.5822Z" fill="white"/>
</g>
</g>
</g>
<defs>
<clipPath id="clip0_38_4303">
<rect width="24" height="24" fill="white"/>
</clipPath>
</defs>
</svg>
