<svg width="30" height="22" viewBox="0 0 30 22" fill="none" xmlns="http://www.w3.org/2000/svg">
<g id="Group 4">
<path id="Vector" d="M29.9528 5.62121C29.8346 6.12923 29.7163 6.637 29.598 7.14451C29.5808 7.21798 29.5574 7.2891 29.5308 7.37898L24.7045 6.39028C24.6834 6.12142 24.6811 5.87756 24.642 5.6384C24.5941 5.30778 24.4361 5.00297 24.1936 4.77321C23.9511 4.54346 23.6382 4.40219 23.3055 4.37224C23.1497 4.35535 22.9932 4.34752 22.8365 4.34879C20.2722 4.34879 17.7078 4.37536 15.1442 4.33003C14.3962 4.31752 13.6467 4.11822 12.905 3.96972C10.722 3.53203 8.54218 3.07637 6.36156 2.62774C6.2834 2.61211 6.21306 2.5871 6.09973 2.55584C6.2498 1.86726 6.37563 1.18182 6.55461 0.509657C6.65856 0.118866 7.06499 -0.0671497 7.4972 0.0219507C9.38238 0.409615 11.267 0.799102 13.1512 1.19041C16.2254 1.82766 19.2996 2.46544 22.3738 3.10373C24.6587 3.57737 26.9435 4.04892 29.2283 4.51839C29.5738 4.58873 29.791 4.79742 29.9497 5.09129L29.9528 5.62121Z" fill="#5F2585"/>
<path id="Vector_2" d="M11.9785 21.9986H0.980102C0.289184 21.9986 0 21.7134 0 21.0303C0 16.0375 0 11.0453 0 6.05358C0 5.38845 0.293093 5.09692 0.964472 5.09692H22.9605C23.628 5.09692 23.9242 5.39158 23.9242 6.05593C23.9242 11.0581 23.9242 16.0602 23.9242 21.0623C23.9242 21.7126 23.6343 22.0002 22.9762 22.0002L11.9785 21.9986ZM4.12441 10.4437C4.41672 10.4437 4.70981 10.4508 5.00212 10.4437C5.49999 10.4297 5.8095 10.1499 5.83451 9.6512C5.85848 9.18256 5.85848 8.713 5.83451 8.24436C5.81028 7.78557 5.52813 7.48544 5.07872 7.46277C4.44642 7.43542 3.81099 7.4362 3.17869 7.46277C2.73866 7.4831 2.46276 7.78166 2.44322 8.22169C2.42134 8.69845 2.42056 9.17756 2.44322 9.65355C2.46589 10.1295 2.76211 10.4148 3.25138 10.4351C3.53509 10.4515 3.82819 10.4429 4.12441 10.4437ZM9.90811 19.8548H1.42326V20.5535H9.90811V19.8548ZM17.9303 7.61284V6.52331H17.2198V7.61049L17.9303 7.61284ZM19.7365 7.61284V6.52331H19.0331V7.60815L19.7365 7.61284ZM21.2754 7.61284V6.52331H20.5822V7.60971L21.2754 7.61284ZM15.6746 7.60737H16.3687V6.52331H15.6746V7.60737ZM2.50262 18.0806V17.3771H1.42951V18.0806H2.50262ZM5.12561 17.3771V18.0759H6.19404V17.3771H5.12561ZM6.96546 18.0681H8.04326V17.3717H6.96546V18.0681ZM8.83031 17.3732V18.0767H9.90421V17.3732H8.83031ZM3.27561 17.3732V18.0767H4.32996V17.3732H3.27561Z" fill="#5F2585"/>
<path id="Vector_3" d="M24.6792 10.3813L28.759 11.1629C28.6621 11.653 28.5714 12.1251 28.4737 12.5956C27.9319 15.2008 27.3892 17.8082 26.8457 20.4176C26.7347 20.9491 26.3541 21.1938 25.8125 21.0828C25.5358 21.0257 25.2654 20.9413 24.9832 20.9202C24.7011 20.8991 24.6745 20.7483 24.6792 20.5138C24.6885 19.5196 24.6792 18.5254 24.6792 17.5313V10.3813Z" fill="#5F2585"/>
<path id="Vector_4" d="M24.6797 7.14893L29.3911 8.11887C29.2347 8.89029 29.0784 9.63827 28.9221 10.4238C28.6556 10.3776 28.4008 10.3386 28.1483 10.2901C27.0604 10.0806 25.9716 9.87117 24.8852 9.65311C24.8118 9.63826 24.693 9.55776 24.6922 9.50696C24.6797 8.72928 24.6797 7.95161 24.6797 7.14893Z" fill="#5F2585"/>
<path id="Vector_5" d="M5.74414 4.33442L5.94891 3.31445L10.7322 4.29065L10.7267 4.33442H5.74414Z" fill="#5F2585"/>
<path id="Vector_6" d="M5.06263 9.70874C4.47019 9.70874 3.89025 9.70873 3.30797 9.70092C3.2603 9.70092 3.17511 9.59306 3.17354 9.53366C3.16182 9.10692 3.16729 8.67939 3.16729 8.22607H5.06263V9.70874Z" fill="#5F2585"/>
</g>
</svg>
