<svg width="19" height="18" viewBox="0 0 19 18" fill="none" xmlns="http://www.w3.org/2000/svg">
<g id="Group 11">
<path id="Vector" d="M9.25514 0H9.74745C10.0808 0.0990771 10.3908 0.236023 10.6435 0.487458C10.9712 0.814193 11.3093 1.1308 11.64 1.45621C11.8074 1.62046 11.995 1.67638 12.2314 1.63851C12.7396 1.55837 13.2499 1.48572 13.7616 1.43596C14.1207 1.4005 14.4805 1.49535 14.7754 1.70319C15.0703 1.91104 15.2806 2.21801 15.368 2.56808C15.4878 3.06126 15.5697 3.56413 15.648 4.06524C15.6921 4.35147 15.8202 4.54566 16.0827 4.67424C16.4763 4.86711 16.8621 5.07759 17.2469 5.28719C18.0836 5.74163 18.3579 6.59633 17.9515 7.455C17.7551 7.86599 17.5544 8.27565 17.3495 8.684C17.2959 8.78153 17.2677 8.89105 17.2677 9.00237C17.2677 9.11368 17.2959 9.2232 17.3495 9.32073C17.555 9.72761 17.7555 10.1371 17.951 10.5493C18.3597 11.408 18.0831 12.2622 17.2465 12.7167C16.8502 12.932 16.4539 13.1469 16.0523 13.3477C15.8273 13.46 15.7 13.6251 15.6608 13.8699C15.5912 14.2966 15.504 14.7211 15.4433 15.1469C15.3112 16.0853 14.5349 16.6762 13.6731 16.5626C13.2614 16.5084 12.8461 16.4706 12.4401 16.3865C12.0606 16.3099 11.7629 16.375 11.4965 16.6758C11.2301 16.9765 10.924 17.2443 10.6286 17.5221C9.95573 18.1593 9.0473 18.1593 8.37446 17.5221C8.03451 17.1998 7.69897 16.8726 7.36167 16.545C7.21019 16.3966 7.0389 16.3248 6.82225 16.3543C6.31321 16.4283 5.80373 16.5023 5.29338 16.5653C4.54215 16.6577 3.8059 16.1689 3.6324 15.4353C3.51395 14.936 3.43293 14.4265 3.35058 13.9192C3.30655 13.6489 3.18678 13.4591 2.93534 13.3353C2.53903 13.1389 2.14625 12.9263 1.7561 12.7136C0.922976 12.2609 0.643798 11.4022 1.05156 10.5462C1.24707 10.1352 1.44757 9.7257 1.65306 9.31765C1.70672 9.22012 1.73485 9.1106 1.73485 8.99928C1.73485 8.88796 1.70672 8.77845 1.65306 8.68092C1.44757 8.27404 1.24692 7.86452 1.05112 7.45236C0.642918 6.59633 0.919013 5.73723 1.75302 5.28367C2.15329 5.0635 2.55533 4.84949 2.96264 4.64429C3.06391 4.59795 3.15166 4.5265 3.21755 4.43672C3.28344 4.34693 3.3253 4.2418 3.33914 4.13129C3.40915 3.7046 3.49678 3.28011 3.55711 2.8543C3.68921 1.91417 4.46994 1.32323 5.3264 1.43684C5.73768 1.49144 6.15249 1.53063 6.55936 1.61297C6.93762 1.68827 7.2441 1.63235 7.50214 1.32279C7.66638 1.12596 7.87423 0.966112 8.05389 0.781608C8.39735 0.429334 8.75711 0.109645 9.25514 0ZM13.4468 5.62758C13.4314 5.35897 13.3336 5.19604 13.1341 5.10489C12.9139 5.00317 12.7136 5.06086 12.4912 5.28103C10.2537 7.51856 8.01675 9.75594 5.7804 11.9932C5.74737 12.0266 5.71346 12.0592 5.68352 12.0949C5.62871 12.1583 5.59043 12.2342 5.57207 12.316C5.55371 12.3977 5.55585 12.4827 5.57829 12.5634C5.60074 12.6442 5.6428 12.7181 5.70072 12.7786C5.75865 12.8392 5.83064 12.8844 5.9103 12.9104C6.14544 12.9928 6.32818 12.9038 6.49375 12.7378C8.74214 10.4876 10.9905 8.23808 13.2389 5.9891C13.2753 5.95936 13.3068 5.92415 13.3323 5.88474C13.3825 5.78786 13.4217 5.68614 13.4468 5.62758ZM7.4264 8.1274C7.92899 8.12648 8.41084 7.92693 8.76692 7.57225C9.123 7.21757 9.32445 6.73651 9.32736 6.23393C9.32692 5.19648 8.45988 4.33121 7.4264 4.33121C6.92345 4.3356 6.44242 4.53767 6.08722 4.89377C5.73203 5.24987 5.53118 5.73142 5.52808 6.23437C5.52901 6.73706 5.72948 7.21882 6.08544 7.57378C6.44139 7.92875 6.9237 8.12787 7.4264 8.1274ZM11.5735 9.87469C11.0707 9.87631 10.5889 10.0769 10.2335 10.4326C9.87806 10.7883 9.67783 11.2702 9.67655 11.773C9.67875 12.8065 10.552 13.6757 11.5832 13.67C12.0818 13.6611 12.5569 13.4565 12.9059 13.1003C13.2548 12.7441 13.4497 12.2649 13.4483 11.7663C13.4469 11.2676 13.2494 10.7895 12.8984 10.4352C12.5475 10.081 12.0713 9.879 11.5727 9.87292L11.5735 9.87469Z" fill="#5F2585"/>
<path id="Vector_2" d="M7.44978 5.36996C7.92535 5.38625 8.31109 5.78785 8.2948 6.25065C8.28698 6.48137 8.18888 6.6998 8.02161 6.85891C7.85434 7.01803 7.63129 7.1051 7.40046 7.10139C6.93414 7.08906 6.54091 6.67822 6.55544 6.2185C6.5583 6.10401 6.58371 5.99122 6.63023 5.88657C6.67675 5.78192 6.74346 5.68748 6.82654 5.60865C6.90961 5.52983 7.00743 5.46817 7.11438 5.42721C7.22132 5.38625 7.3353 5.3668 7.44978 5.36996Z" fill="#5F2585"/>
<path id="Vector_3" d="M11.5832 12.6321C11.3523 12.633 11.1304 12.5424 10.9661 12.38C10.8019 12.2177 10.7087 11.9968 10.7069 11.7659C10.7179 11.542 10.8147 11.331 10.9773 11.1768C11.14 11.0225 11.3558 10.937 11.58 10.9379C11.8041 10.9388 12.0192 11.0261 12.1806 11.1817C12.342 11.3372 12.4371 11.549 12.4463 11.773C12.4435 12.0006 12.3516 12.2181 12.1902 12.3788C12.0288 12.5394 11.8109 12.6304 11.5832 12.6321Z" fill="#5F2585"/>
</g>
</svg>
