<svg width="26" height="24" viewBox="0 0 26 24" fill="none" xmlns="http://www.w3.org/2000/svg">
<g id="Group 7">
<path id="Vector" d="M0 17.5178V5.23981C0.0184015 5.21422 0.0332255 5.18624 0.0440621 5.15664C0.37131 3.55753 1.61594 2.53271 3.23832 2.53271C8.32609 2.53271 13.4139 2.53271 18.5016 2.53271H18.7878C18.6853 2.64015 18.6259 2.705 18.5635 2.76738C17.2103 4.1206 15.8559 5.47382 14.5004 6.82704C14.0949 7.23053 13.884 7.7058 13.8964 8.28208C13.9058 8.70092 13.8934 9.12074 13.9013 9.53958C13.9187 10.3906 14.5063 11.1511 15.3455 11.3001C15.8406 11.3877 16.3594 11.3392 16.8669 11.3654C17.5268 11.3996 18.0551 11.1526 18.515 10.6862C20.2567 8.92865 22.0113 7.18449 23.7584 5.4324C23.8193 5.37101 23.8495 5.27793 23.8935 5.19921L23.9817 5.26803C23.9866 5.33932 23.9955 5.41061 23.9955 5.48191C23.9955 9.30442 24.0005 13.1264 23.9896 16.9485C23.9894 17.3093 23.9369 17.6681 23.8336 18.0139C23.4257 19.3436 22.2053 20.2165 20.7795 20.2209C18.8398 20.2264 16.9 20.2209 14.9603 20.2284C14.8088 20.2325 14.662 20.2816 14.5385 20.3695C13.0018 21.5104 11.4695 22.6575 9.9417 23.8108C9.70703 23.9875 9.46197 24.0677 9.18769 23.9311C8.91342 23.7944 8.82628 23.5523 8.82777 23.2553C8.83321 22.3349 8.82777 21.4141 8.82777 20.4937V20.2214H8.49607C6.73705 20.2214 4.97803 20.2313 3.21901 20.218C1.96844 20.2081 1.00452 19.6605 0.390123 18.5649C0.211399 18.2431 0.12674 17.8678 0 17.5178ZM11.9978 13.9082H9.26047C7.65773 13.9082 6.05499 13.9082 4.45225 13.9082C4.09728 13.9082 3.83489 14.1314 3.79528 14.4483C3.77687 14.5966 3.81246 14.7465 3.89556 14.8707C3.97865 14.9949 4.10369 15.085 4.24779 15.1246C4.34328 15.1469 4.44142 15.1559 4.53939 15.1513C9.50405 15.1513 14.4685 15.1513 19.4329 15.1513C19.4989 15.1537 19.565 15.1525 19.6309 15.1478C19.7794 15.1337 19.9177 15.0658 20.0198 14.957C20.1219 14.8482 20.1808 14.7059 20.1854 14.5567C20.2007 14.1582 19.9379 13.9067 19.4948 13.9067C16.9939 13.9064 14.4949 13.9068 11.9978 13.9082ZM7.57126 7.57659C8.5728 7.57659 9.57485 7.57906 10.5764 7.57411C10.715 7.57896 10.8533 7.55901 10.9848 7.5152C11.2646 7.40777 11.4047 7.10329 11.3378 6.80674C11.271 6.51019 11.0066 6.32354 10.6284 6.32354C8.59228 6.32354 6.55618 6.32354 4.52008 6.32354C4.40564 6.32321 4.29192 6.34161 4.18342 6.378C4.06755 6.42201 3.96799 6.50056 3.89822 6.60301C3.82844 6.70546 3.79182 6.82686 3.7933 6.95081C3.7933 7.20379 3.94183 7.44589 4.18045 7.52411C4.31404 7.56178 4.45266 7.57848 4.59137 7.57362C5.5845 7.57857 6.57813 7.57708 7.57126 7.57659ZM7.57126 11.361C8.59772 11.361 9.62386 11.361 10.6497 11.361C11.0829 11.361 11.3487 11.1219 11.3502 10.7431C11.3517 10.3644 11.0784 10.1163 10.6571 10.1163C8.60515 10.1163 6.55288 10.1163 4.50028 10.1163C4.41862 10.113 4.33688 10.1205 4.25719 10.1386C4.11323 10.1775 3.98786 10.2665 3.90364 10.3895C3.81942 10.5126 3.78187 10.6617 3.79776 10.81C3.81431 10.9626 3.88742 11.1035 4.00269 11.205C4.11797 11.3064 4.26705 11.361 4.42057 11.358C5.46816 11.3639 6.51921 11.361 7.56977 11.361H7.57126Z" fill="#5F2585"/>
<path id="Vector_2" d="M16.3956 10.1158C16.1975 10.1158 15.9995 10.1203 15.804 10.1158C15.4163 10.1045 15.1529 9.849 15.145 9.46531C15.1371 9.05489 15.1148 8.641 15.1559 8.23454C15.1866 8.02753 15.2817 7.83544 15.4277 7.6855C16.3743 6.71564 17.3382 5.76261 18.2967 4.80463L22.7925 0.308811C23.2064 -0.10458 23.5089 -0.103095 23.9277 0.314257C24.2886 0.673685 24.651 1.03113 25.0075 1.39502C25.3402 1.73464 25.3441 2.07377 25.0075 2.40795C22.5238 4.89556 20.0385 7.38218 17.5516 9.86781C17.4736 9.9524 17.378 10.0188 17.2714 10.0621C17.1649 10.1055 17.0501 10.1249 16.9352 10.1188C16.7575 10.1099 16.5763 10.1163 16.3956 10.1158Z" fill="#5F2585"/>
</g>
</svg>
