<svg width="97" height="86" viewBox="0 0 97 86" fill="none" xmlns="http://www.w3.org/2000/svg">
<g id="Fingerprint">
<rect id="Container" x="1" y="0.5" width="95" height="85" rx="3.5" stroke="#E5E5E5"/>
<g id="fingerprint">
<mask id="mask0_108_2639" style="mask-type:alpha" maskUnits="userSpaceOnUse" x="24" y="19" width="49" height="48">
<rect id="Bounding box" x="24.5" y="19" width="48" height="48" fill="#D9D9D9"/>
</mask>
<g mask="url(#mask0_108_2639)">
<path id="fingerprint_2" d="M30.9405 38.3C30.7072 38.1334 30.5655 37.925 30.5155 37.675C30.4655 37.425 30.5405 37.1667 30.7405 36.9C32.8072 34.0667 35.3988 31.8667 38.5155 30.3C41.6322 28.7334 44.9572 27.95 48.4905 27.95C52.0238 27.95 55.3572 28.7084 58.4905 30.225C61.6238 31.7417 64.2405 33.9334 66.3405 36.8C66.5738 37.1 66.6488 37.3667 66.5655 37.6C66.4822 37.8334 66.3405 38.0334 66.1405 38.2C65.9405 38.3667 65.7072 38.4417 65.4405 38.425C65.1738 38.4084 64.9405 38.2667 64.7405 38C62.9072 35.4 60.5488 33.4084 57.6655 32.025C54.7822 30.6417 51.7238 29.95 48.4905 29.95C45.2572 29.95 42.2238 30.6417 39.3905 32.025C36.5572 33.4084 34.2072 35.4 32.3405 38C32.1405 38.3 31.9072 38.4667 31.6405 38.5C31.3738 38.5334 31.1405 38.4667 30.9405 38.3ZM54.1405 62.9501C50.6738 62.0834 47.8405 60.3584 45.6405 57.7751C43.4405 55.1917 42.3405 52.0334 42.3405 48.3C42.3405 46.6334 42.9405 45.2334 44.1405 44.1C45.3405 42.9667 46.7905 42.4 48.4905 42.4C50.1905 42.4 51.6405 42.9667 52.8405 44.1C54.0405 45.2334 54.6405 46.6334 54.6405 48.3C54.6405 49.4 55.0572 50.325 55.8905 51.075C56.7238 51.825 57.7072 52.2 58.8405 52.2C59.9738 52.2 60.9405 51.825 61.7405 51.075C62.5405 50.325 62.9405 49.4 62.9405 48.3C62.9405 44.4334 61.5238 41.1834 58.6905 38.55C55.8572 35.9167 52.4738 34.6 48.5405 34.6C44.6072 34.6 41.2238 35.9167 38.3905 38.55C35.5572 41.1834 34.1405 44.4167 34.1405 48.25C34.1405 49.05 34.2155 50.05 34.3655 51.25C34.5155 52.4501 34.8738 53.85 35.4405 55.4501C35.5405 55.75 35.5322 56.0167 35.4155 56.25C35.2988 56.4834 35.1072 56.6501 34.8405 56.75C34.5738 56.85 34.3155 56.8417 34.0655 56.725C33.8155 56.6084 33.6405 56.4167 33.5405 56.1501C33.0405 54.8501 32.6822 53.5584 32.4655 52.275C32.2488 50.9917 32.1405 49.6667 32.1405 48.3C32.1405 43.8667 33.7488 40.15 36.9655 37.15C40.1822 34.15 44.0238 32.65 48.4905 32.65C52.9905 32.65 56.8572 34.15 60.0905 37.15C63.3238 40.15 64.9405 43.8667 64.9405 48.3C64.9405 49.9667 64.3488 51.3584 63.1655 52.475C61.9822 53.5917 60.5405 54.15 58.8405 54.15C57.1405 54.15 55.6822 53.5917 54.4655 52.475C53.2488 51.3584 52.6405 49.9667 52.6405 48.3C52.6405 47.2 52.2322 46.275 51.4155 45.525C50.5988 44.775 49.6238 44.4 48.4905 44.4C47.3572 44.4 46.3822 44.775 45.5655 45.525C44.7488 46.275 44.3405 47.2 44.3405 48.3C44.3405 51.5334 45.2988 54.2334 47.2155 56.4001C49.1322 58.5667 51.6072 60.0834 54.6405 60.9501C54.9405 61.05 55.1405 61.2167 55.2405 61.4501C55.3405 61.6834 55.3572 61.9334 55.2905 62.2001C55.2238 62.4334 55.0905 62.6334 54.8905 62.8C54.6905 62.9667 54.4405 63.0167 54.1405 62.9501ZM37.4405 27.85C37.1738 28.0167 36.9072 28.0584 36.6405 27.975C36.3738 27.8917 36.1738 27.7167 36.0405 27.45C35.9072 27.1834 35.8738 26.9417 35.9405 26.725C36.0072 26.5084 36.1738 26.3167 36.4405 26.15C38.3072 25.15 40.2572 24.3834 42.2905 23.85C44.3238 23.3167 46.3905 23.05 48.4905 23.05C50.6238 23.05 52.7072 23.3084 54.7405 23.825C56.7738 24.3417 58.7405 25.0834 60.6405 26.05C60.9405 26.2167 61.1155 26.4167 61.1655 26.65C61.2155 26.8834 61.1905 27.1167 61.0905 27.35C60.9905 27.5834 60.8238 27.7667 60.5905 27.9C60.3572 28.0334 60.0738 28.0167 59.7405 27.85C57.9738 26.95 56.1488 26.2584 54.2655 25.775C52.3822 25.2917 50.4572 25.05 48.4905 25.05C46.5572 25.05 44.6572 25.275 42.7905 25.725C40.9238 26.175 39.1405 26.8834 37.4405 27.85ZM43.3405 62.25C41.3738 60.1834 39.8655 58.0751 38.8155 55.925C37.7655 53.775 37.2405 51.2334 37.2405 48.3C37.2405 45.2667 38.3405 42.7084 40.5405 40.625C42.7405 38.5417 45.3905 37.5 48.4905 37.5C51.5905 37.5 54.2572 38.5417 56.4905 40.625C58.7238 42.7084 59.8405 45.2667 59.8405 48.3C59.8405 48.6 59.7488 48.8417 59.5655 49.025C59.3822 49.2084 59.1405 49.3 58.8405 49.3C58.5738 49.3 58.3405 49.2084 58.1405 49.025C57.9405 48.8417 57.8405 48.6 57.8405 48.3C57.8405 45.8 56.9155 43.7084 55.0655 42.025C53.2155 40.3417 51.0238 39.5 48.4905 39.5C45.9572 39.5 43.7822 40.3417 41.9655 42.025C40.1488 43.7084 39.2405 45.8 39.2405 48.3C39.2405 51 39.7072 53.2917 40.6405 55.175C41.5738 57.0584 42.9405 58.95 44.7405 60.85C44.9405 61.05 45.0405 61.2834 45.0405 61.55C45.0405 61.8167 44.9405 62.05 44.7405 62.25C44.5405 62.4501 44.3072 62.55 44.0405 62.55C43.7738 62.55 43.5405 62.4501 43.3405 62.25ZM58.4405 58.85C55.4738 58.85 52.8988 57.85 50.7155 55.85C48.5322 53.85 47.4405 51.3334 47.4405 48.3C47.4405 48.0334 47.5322 47.8001 47.7155 47.6C47.8988 47.4 48.1405 47.3 48.4405 47.3C48.7405 47.3 48.9822 47.4 49.1655 47.6C49.3488 47.8001 49.4405 48.0334 49.4405 48.3C49.4405 50.8 50.3405 52.85 52.1405 54.45C53.9405 56.05 56.0405 56.85 58.4405 56.85C58.6405 56.85 58.9238 56.8334 59.2905 56.8C59.6572 56.7667 60.0405 56.7167 60.4405 56.6501C60.7405 56.5834 60.9988 56.625 61.2155 56.7751C61.4322 56.9251 61.5738 57.1501 61.6405 57.4501C61.7072 57.7167 61.6572 57.9501 61.4905 58.1501C61.3238 58.3501 61.1072 58.4834 60.8405 58.55C60.2405 58.7167 59.7155 58.8084 59.2655 58.8251C58.8155 58.8417 58.5405 58.85 58.4405 58.85Z" fill="#5F2585"/>
</g>
</g>
</g>
</svg>
