<svg width="26" height="25" viewBox="0 0 26 25" fill="none" xmlns="http://www.w3.org/2000/svg">
<g id="Group 8">
<path id="Vector" d="M23.9979 7.53467V7.87058C23.9979 12.3198 23.9755 16.7698 24.0102 21.2198C24.0145 21.6049 23.9416 21.987 23.7958 22.3434C23.65 22.6999 23.4344 23.0236 23.1615 23.2954C22.8886 23.5672 22.5641 23.7816 22.207 23.9259C21.85 24.0703 21.4676 24.1417 21.0826 24.1359C15.6225 24.1028 10.1625 24.1243 4.70323 24.1236C3.23941 24.1236 2.12846 23.199 1.87267 21.7637C1.85401 21.6403 1.84577 21.5156 1.84802 21.3908C1.84802 16.8453 1.84802 12.2998 1.84802 7.75424V7.53467H23.9979ZM12.9306 11.2073C14.1402 11.2073 15.3498 11.2112 16.5601 11.2073C17.121 11.2073 17.537 10.8013 17.537 10.2828C17.537 9.76429 17.1195 9.36213 16.5586 9.35827C14.1292 9.35417 11.7 9.35417 9.27111 9.35827C9.07741 9.35121 8.88639 9.40521 8.72505 9.51263C8.56371 9.62005 8.44021 9.77546 8.37202 9.9569C8.14089 10.5856 8.58928 11.1981 9.30116 11.2019C10.5107 11.2119 11.7211 11.2073 12.9306 11.2073Z" fill="#5F2585"/>
<path id="Vector_2" d="M12.9249 5.53168H1.96708C0.772912 5.53168 0.0024825 4.76126 0.00171207 3.57325C0.00171207 2.98696 -0.00214008 2.40066 0.00171207 1.81513C0.00435028 1.33449 0.196718 0.87434 0.53695 0.53483C0.877181 0.19532 1.33774 0.00392924 1.81839 0.00231129C9.21913 -0.00077043 16.6204 -0.00077043 24.0222 0.00231129C24.5033 0.00250756 24.9649 0.193108 25.306 0.532482C25.6471 0.871856 25.84 1.33242 25.8427 1.81359C25.8481 2.42993 25.8427 3.04628 25.8427 3.65877C25.8427 4.73737 25.0438 5.534 23.9682 5.53477C20.2876 5.53374 16.6065 5.53271 12.9249 5.53168Z" fill="#5F2585"/>
</g>
</svg>
