<svg width="20" height="18" viewBox="0 0 20 18" fill="none" xmlns="http://www.w3.org/2000/svg">
<g id="Group 10">
<path id="Vector" d="M1.55984 18.0003C1.10462 17.7962 0.963337 17.4438 0.965478 16.9529C0.979748 13.6257 0.973328 10.2979 0.973328 6.97074V6.64038H19.0089V8.2251H18.7306C17.9208 8.2251 17.111 8.2194 16.3047 8.2251C15.7068 8.23153 15.3414 8.71458 15.5013 9.26684C15.6026 9.61646 15.908 9.8241 16.3446 9.82624C17.1295 9.83052 17.9108 9.82624 18.6935 9.82624H19.0268V10.143C19.0268 12.412 19.0182 14.681 19.0346 16.9493C19.0346 17.438 18.8997 17.7955 18.4402 17.9967H9.99861C9.99861 15.0513 9.99861 12.1057 9.99861 9.15981C9.99861 8.54119 9.68038 8.22225 9.0639 8.22225H5.16667C4.47741 8.22225 4.17702 8.52264 4.17702 9.21404V17.9974L1.55984 18.0003ZM12.9761 8.2251C12.4624 8.2251 12.1006 8.54761 12.0942 9.01711C12.0878 9.4866 12.451 9.82552 12.9604 9.82909C13.4699 9.83266 13.8359 9.50159 13.8423 9.03352C13.8488 8.56545 13.4856 8.22796 12.9733 8.22582L12.9761 8.2251Z" fill="#5F2585"/>
<path id="Vector_2" d="M5.7782 18.0003V9.84839H8.39752V18.0003H5.7782Z" fill="#5F2585"/>
<path id="Vector_3" d="M19.025 5.01389H0.973022V4.75988C0.973022 3.46984 0.973022 2.17932 0.973022 0.88833C0.973022 0.317515 1.28626 0 1.86421 0C7.28694 0 12.7073 0 18.1253 0C18.7161 0 19.0229 0.314661 19.0229 0.909735C19.0229 2.18265 19.0229 3.45533 19.0229 4.72777L19.025 5.01389Z" fill="#5F2585"/>
</g>
</svg>
