<svg width="26" height="26" viewBox="0 0 26 26" fill="none" xmlns="http://www.w3.org/2000/svg">
<g id="Group 9">
<path id="Vector" d="M14.8837 10.0864V17.1006H8.45435V16.7641C8.45435 14.2602 8.45435 11.7558 8.45435 9.25096C8.45435 8.64523 8.57039 8.53074 9.18462 8.52842H9.46002C9.47007 8.4588 9.47858 8.40465 9.48555 8.3505C9.59772 7.48253 10.2367 6.90543 11.1101 6.8946C11.7955 6.88609 12.4817 6.90388 13.1663 6.88377C13.3319 6.87533 13.4893 6.80909 13.6111 6.69656C14.1689 6.13648 14.7065 5.55551 15.2565 4.97609C15.1683 4.85232 15.091 4.74402 15.0461 4.6829C14.5557 5.14706 14.0652 5.59264 13.5879 6.05525C13.1771 6.45365 12.706 6.59677 12.1575 6.42812C11.987 6.37754 11.8287 6.29273 11.6921 6.17888C11.5555 6.06502 11.4435 5.92451 11.363 5.76593C11.0018 6.01735 10.6212 6.15891 10.174 6.05293C9.74005 5.95004 9.43604 5.6963 9.21943 5.29713C8.93475 5.54623 8.66399 5.79068 8.38472 6.02586C8.23513 6.15559 8.06139 6.25453 7.87348 6.31698C7.68557 6.37944 7.48719 6.40419 7.28969 6.38982C7.0922 6.37544 6.89948 6.32223 6.72259 6.23322C6.5457 6.14422 6.38813 6.02117 6.25889 5.87114C5.71738 5.27238 5.76766 4.37811 6.40278 3.79714C7.65033 2.65686 8.90458 1.52355 10.1655 0.397203C10.4537 0.134054 10.8321 -0.00805554 11.2223 0.00035294C13.0557 0.00396303 14.8896 0.00396303 16.724 0.00035294C17.1301 -0.00458003 17.5298 0.102484 17.879 0.30979C18.4778 0.661774 19.0696 1.02536 19.6784 1.35723C19.8807 1.45847 20.101 1.51868 20.3266 1.53438C20.6361 1.56378 20.9455 1.53438 21.255 1.54444C21.4097 1.54444 21.487 1.51118 21.5489 1.34795C21.7323 0.866 22.0997 0.616903 22.6188 0.614582C23.4875 0.614582 24.3563 0.609941 25.225 0.614582C25.6196 0.614582 25.7805 0.782452 25.7851 1.18781C25.7913 1.84537 25.7851 2.50292 25.7851 3.16047C25.7851 5.02637 25.7851 6.89253 25.7851 8.75895C25.7851 9.33141 25.659 9.45518 25.0889 9.45518C24.3462 9.45518 23.6013 9.42966 22.8594 9.46215C22.1693 9.49309 21.6131 9.26488 21.4406 8.32188C20.9935 8.32188 20.5402 8.31491 20.0884 8.32729C19.9845 8.34289 19.8862 8.38468 19.8029 8.44874C19.1547 8.86725 18.5064 9.28577 17.8643 9.71434C17.4935 9.96284 17.0551 10.0911 16.6088 10.0818C16.0471 10.0833 15.4886 10.0864 14.8837 10.0864ZM21.4592 2.49132C20.9741 2.49132 20.5208 2.50756 20.0667 2.48358C19.8582 2.47464 19.6543 2.4197 19.4695 2.32267C18.7779 1.93588 18.1072 1.51814 17.4133 1.1414C17.1866 1.01773 16.9342 0.948842 16.6761 0.940266C14.9004 0.923763 13.1248 0.923763 11.3491 0.940266C11.1136 0.953265 10.8881 1.04015 10.7047 1.18859C10.1965 1.60246 9.72072 2.05733 9.2349 2.49751C8.51082 3.15042 7.78442 3.80178 7.06421 4.45933C6.75013 4.74634 6.76018 5.11534 7.07271 5.34974C7.31949 5.5354 7.56317 5.49904 7.87338 5.22751C8.83959 4.3812 9.79962 3.52561 10.7774 2.69477C10.9448 2.55714 11.1514 2.47592 11.3677 2.46269C12.3223 2.43871 13.2785 2.4565 14.2338 2.44954C14.3541 2.44361 14.4738 2.46987 14.5806 2.52563C14.6873 2.58138 14.7773 2.6646 14.8411 2.76671C15.2712 3.38559 15.7114 3.99595 16.1469 4.61018C16.4069 4.97687 16.3945 5.14319 16.0835 5.47042C15.4244 6.16665 14.7614 6.85205 14.1093 7.55138C14.0279 7.64598 13.9261 7.7208 13.8115 7.77013C13.6969 7.81946 13.5725 7.842 13.4479 7.83606C12.6666 7.82445 11.8844 7.82832 11.1031 7.83606C10.6908 7.83606 10.4402 8.0867 10.4363 8.47505C10.4316 8.90516 10.6893 9.13337 11.1998 9.13492C12.9373 9.14162 14.6745 9.14549 16.4115 9.14652C16.7674 9.14652 17.1077 9.11403 17.4272 8.88969C18.0097 8.47891 18.6286 8.1161 19.2127 7.70919C19.5523 7.47092 19.8965 7.34638 20.315 7.37809C20.6941 7.40749 21.077 7.38428 21.4584 7.38428L21.4592 2.49132ZM12.6642 13.0222C13.0851 12.9859 13.2452 12.7646 13.1284 12.326C13.0839 12.1567 12.9985 12.0009 12.8796 11.8723C12.7608 11.7438 12.6122 11.6464 12.4469 11.5888C12.2148 11.5006 12.1219 11.4 12.1212 11.1439C12.1212 10.8639 11.903 10.7053 11.6377 10.7216C11.3901 10.737 11.23 10.9088 11.213 11.1818C11.2068 11.2762 11.213 11.3714 11.213 11.4565C10.7403 11.6212 10.352 11.8371 10.2174 12.3337C10.0781 12.8497 10.3489 13.197 10.731 13.5034C10.239 13.5807 10.0781 13.843 10.2328 14.2886C10.2906 14.4534 10.3858 14.6026 10.5109 14.7244C10.636 14.8463 10.7876 14.9375 10.9538 14.991C11.1426 15.0599 11.2284 15.1395 11.2192 15.3554C11.206 15.6602 11.394 15.8474 11.6617 15.8528C11.9293 15.8582 12.1305 15.6811 12.1258 15.3763C12.1258 15.1527 12.2032 15.0668 12.402 14.9848C13 14.7419 13.2986 14.2275 13.1129 13.7107C13.0232 13.4608 12.8189 13.2527 12.6642 13.0222ZM13.9275 3.37785C13.8416 3.41266 13.7357 3.42581 13.6738 3.48461C13.1996 3.93948 12.7253 4.39435 12.2697 4.86701C12.2176 4.91485 12.1798 4.97631 12.1608 5.04444C12.1417 5.11258 12.142 5.18469 12.1617 5.25265C12.1814 5.3206 12.2197 5.38171 12.2723 5.42907C12.3248 5.47643 12.3896 5.50817 12.4592 5.5207C12.5449 5.52944 12.6315 5.5202 12.7134 5.49356C12.7954 5.46692 12.8708 5.42346 12.935 5.36598C13.3852 4.94205 13.8099 4.49182 14.2346 4.04237C14.3081 3.96501 14.404 3.8041 14.3723 3.74918C14.2795 3.58904 14.2106 3.35232 13.9275 3.37785ZM12.2697 3.40416C12.0376 3.40416 11.7584 3.39951 11.4806 3.40416C11.4145 3.41072 11.352 3.43776 11.3019 3.48151C10.9291 3.80023 10.5554 4.11973 10.1926 4.45005C10.0209 4.60477 9.99147 4.80049 10.1423 4.99156C10.1764 5.03557 10.2193 5.07199 10.2682 5.09847C10.3172 5.12496 10.3712 5.14093 10.4266 5.14537C10.4821 5.14982 10.5379 5.14263 10.5905 5.12427C10.643 5.10591 10.6912 5.07678 10.7318 5.03875C11.2532 4.50188 11.7591 3.94954 12.2697 3.40416Z" fill="#5F2585"/>
<path id="Vector_2" d="M0.0177935 20.799H23.3153C23.3222 20.8995 23.3338 20.9916 23.3338 21.0836C23.3338 22.3704 23.3338 23.6566 23.3338 24.9423C23.3338 25.6571 22.9811 25.9998 22.2601 25.9998H1.09076C0.356626 25.9998 0.00386796 25.6548 0.00232077 24.9168C-0.000773591 23.6403 -0.000773591 22.3639 0.00232077 21.0875C0.00232077 20.9978 0.0123784 20.9034 0.0177935 20.799Z" fill="#5F2585"/>
<path id="Vector_3" d="M0.22644 19.8555C0.286007 19.7441 0.323138 19.6675 0.365686 19.5948C1.30276 17.9734 2.23881 16.3519 3.17382 14.7305C3.38966 14.3545 3.68362 14.1433 4.12844 14.1457C5.27722 14.1503 6.42523 14.1457 7.57401 14.1457C7.63594 14.1493 7.69765 14.156 7.7589 14.1658V17.0799C7.66229 17.1268 7.57077 17.1836 7.48582 17.2493C7.2607 17.4582 7.35044 17.8867 7.64054 17.9919C7.74044 18.024 7.84511 18.0387 7.94997 18.0353C10.4311 18.0353 12.9118 18.0353 15.3919 18.0353C15.8151 18.0353 16.0533 17.8094 15.9512 17.4675C15.9033 17.3073 15.7308 17.1851 15.5722 16.9956V14.1658C15.6758 14.1588 15.7687 14.1472 15.8607 14.1472C16.9437 14.1472 18.0268 14.1573 19.1044 14.1418C19.601 14.1348 19.9368 14.3274 20.1874 14.7607C21.0995 16.3628 22.0309 17.954 22.9538 19.5492C23.0048 19.6374 23.0482 19.731 23.1085 19.8532L0.22644 19.8555Z" fill="#5F2585"/>
<path id="Vector_4" d="M12.3863 12.9718C11.9485 12.732 11.458 12.9455 11.0906 12.5966C11.2453 12.3498 11.4867 12.3243 11.7218 12.3305C12.0668 12.3398 12.1349 12.4133 12.3863 12.9718Z" fill="#5F2585"/>
<path id="Vector_5" d="M11.0002 13.6145C11.4118 13.7986 11.8883 13.6261 12.2627 13.9588C12.0647 14.2303 11.7986 14.2287 11.5294 14.214C11.189 14.1947 11.0621 13.9626 11.0002 13.6145Z" fill="#5F2585"/>
</g>
</svg>
